<svg xmlns="http://www.w3.org/2000/svg" xmlns:xlink="http://www.w3.org/1999/xlink" width="118" height="118" viewBox="0 0 118 118">
  <defs>
    <filter id="Ellipse_469" x="0" y="0" width="118" height="118" filterUnits="userSpaceOnUse">
      <feOffset input="SourceAlpha"/>
      <feGaussianBlur stdDeviation="10" result="blur"/>
      <feFlood flood-opacity="0.239"/>
      <feComposite operator="in" in2="blur"/>
      <feComposite in="SourceGraphic"/>
    </filter>
  </defs>
  <g id="Group_4419" data-name="Group 4419" transform="translate(19.012 19)">
    <g id="Ellipse_497" data-name="Ellipse 497" fill="#fff" stroke="#4f269f" stroke-width="1" stroke-dasharray="3" opacity="0.42">
      <circle cx="40" cy="40" r="40" stroke="none"/>
      <circle cx="40" cy="40" r="39.5" fill="none"/>
    </g>
    <g id="Group_3122" data-name="Group 3122" transform="translate(10.988 11)">
      <g transform="matrix(1, 0, 0, 1, -30, -30)" filter="url(#Ellipse_469)">
        <circle id="Ellipse_469-2" data-name="Ellipse 469" cx="29" cy="29" r="29" transform="translate(30 30)" fill="#4f269f"/>
      </g>
      <path id="Union_31" data-name="Union 31" d="M10.926,23.47V14.163H1.618a1.619,1.619,0,0,1,0-3.237h9.308V1.619a1.619,1.619,0,1,1,3.237,0v9.307H23.47a1.619,1.619,0,0,1,0,3.237H14.163V23.47a1.619,1.619,0,1,1-3.237,0Z" transform="translate(16.558 16.353)" fill="#fff"/>
    </g>
  </g>
</svg>
