<svg xmlns="http://www.w3.org/2000/svg" xmlns:xlink="http://www.w3.org/1999/xlink" width="160" height="160" viewBox="0 0 160 160">
  <defs>
    <clipPath id="clip-path">
      <circle id="Ellipse_2350" data-name="Ellipse 2350" cx="80" cy="80" r="80" fill="#fff" stroke="#707070" stroke-width="1"/>
    </clipPath>
  </defs>
  <g id="Group_48535" data-name="Group 48535" transform="translate(-872 -320)">
    <circle id="Ellipse_2351" data-name="Ellipse 2351" cx="80" cy="80" r="80" transform="translate(872 320)" fill="#000921"/>
    <g id="Mask_Group_132" data-name="Mask Group 132" transform="translate(872 320)" clip-path="url(#clip-path)">
      <g id="Group_41578" data-name="Group 41578" transform="matrix(0.875, 0.485, -0.485, 0.875, 93.367, -46.414)">
        <g id="Group_41572" data-name="Group 41572">
          <path id="Path_17444" data-name="Path 17444" d="M3.421,119.029c-1.44-.707-4.27-2.66-3.175-10.145s23.279-9.343,24.124-11.6-5.416-6.6-11.65-17.6,1.444-24.028,5.3-23.167S28.029,76.367,37.435,79.556c6.933,2.351,18.039,12.061,23.4,17.011C88.865,88.765,242.669,44.643,301.733,0c0,0,24.073,63.645,8.344,88.071C294.913,111.615,95.766,146.8,57.512,144.716c-8.081,4.021-27.319,7.477-35.826,7.906-8.841.445-9.955-8.424-9.955-8.424-6.617-1.5-6.566-12.275-6.566-12.275C.07,127.4,3.421,119.029,3.421,119.029Z" fill="#e29579"/>
          <g id="Group_41571" data-name="Group 41571" transform="translate(4.659 98.614)">
            <path id="Path_17445" data-name="Path 17445" d="M0,14.709A35.277,35.277,0,0,0,10.22,14.7a38.259,38.259,0,0,0,9.929-2.792,9.68,9.68,0,0,0,4.239-3.4,6.192,6.192,0,0,0,.942-2.688A4.629,4.629,0,0,0,24.711,3,6.262,6.262,0,0,0,20.216.1a11.876,11.876,0,0,0-5.123.518,14.038,14.038,0,0,1,4.96.239,5.56,5.56,0,0,1,3.574,2.732A4.033,4.033,0,0,1,23.138,7.7a8.375,8.375,0,0,1-3.647,2.781,48.828,48.828,0,0,1-9.483,3.017A60.463,60.463,0,0,1,0,14.709Z" transform="translate(0 5.104)" fill="#df8666"/>
            <path id="Path_17446" data-name="Path 17446" d="M0,18.125a88.26,88.26,0,0,0,9.861-1.7,55.237,55.237,0,0,0,9.574-3.113,15.687,15.687,0,0,0,4.429-2.751,6.5,6.5,0,0,0,2.187-4.913A5.848,5.848,0,0,0,23.594,1,5.563,5.563,0,0,0,18.644.3a5.629,5.629,0,0,1,4.478,1.308,5.1,5.1,0,0,1,1.7,4.034,5.359,5.359,0,0,1-1.971,3.819,14.783,14.783,0,0,1-4.05,2.4A84.738,84.738,0,0,1,9.54,15.238C6.384,16.217,3.178,17.1,0,18.125Z" transform="translate(5.65 14.09)" fill="#df8666"/>
            <path id="Path_17447" data-name="Path 17447" d="M0,17.981a49.952,49.952,0,0,0,7.8-2.335,63.955,63.955,0,0,0,7.416-3.406A16.686,16.686,0,0,0,18.668,9.8a8.1,8.1,0,0,0,2.255-3.725A5.1,5.1,0,0,0,20.276,1.8,3.849,3.849,0,0,0,16.618.047a3.767,3.767,0,0,1,3,2.151,4.379,4.379,0,0,1,.13,3.526c-.836,2.349-2.984,3.906-5.29,5.135-2.334,1.282-4.738,2.481-7.143,3.662Z" transform="translate(9.922 26.765)" fill="#df8666"/>
            <path id="Path_17448" data-name="Path 17448" d="M0,15.248a20.482,20.482,0,0,0,4.713-2.063A11.985,11.985,0,0,0,8.572,9.553,7.8,7.8,0,0,0,9.876,4.3,5.44,5.44,0,0,0,6.988,0a6.353,6.353,0,0,1,1.66,4.387A7.921,7.921,0,0,1,7.249,8.7,15.141,15.141,0,0,1,4,12.184C2.738,13.224,1.337,14.166,0,15.248Z" transform="translate(21.674 35.371)" fill="#df8666"/>
            <path id="Path_17449" data-name="Path 17449" d="M24.259,20.724A24.764,24.764,0,0,1,15.5,19.511a22.371,22.371,0,0,1-7.545-4.232A22.418,22.418,0,0,1,2.625,8.468,24.886,24.886,0,0,1,.088,0,18.471,18.471,0,0,0,1.509,8.984a20.16,20.16,0,0,0,5.424,7.49,20.18,20.18,0,0,0,8.231,4.215A18.5,18.5,0,0,0,24.259,20.724Z" transform="translate(23.09)" fill="#df8666"/>
          </g>
        </g>
        <g id="Group_41577" data-name="Group 41577" transform="translate(62.626 83.715)">
          <g id="Group_41574" data-name="Group 41574" transform="translate(4.274)">
            <g id="Group_41573" data-name="Group 41573">
              <path id="Path_17450" data-name="Path 17450" d="M19.029,50.181c-.161,3.94-.4,6.975-.657,9.3-.867,7.446-2.131,7.743-3.2,8a4.754,4.754,0,0,1-1.028.111c-3.667,0-7.954-4.212-10.307-6.863,1.536-.1,3.159-.211,4.856-.347,1.945,1.858,3.915,3.3,5.1,3.493a21.1,21.1,0,0,0,.756-4.014A204.256,204.256,0,0,0,15.5,33.717c-.211-13.417-1.14-21.965-2.069-26.45a12.68,12.68,0,0,0-1.09-3.543c-1.995.124-4.955,3.023-7.223,5.959q-2.36.688-4.386,1.264L0,10.5C1.165,8.63,7.285-.612,13.095.032c1.065.124,2.614.3,3.915,6.182a103.727,103.727,0,0,1,1.722,14.705C19.3,30.074,19.413,41.013,19.029,50.181Z" fill="#4f269f"/>
            </g>
          </g>
          <g id="Group_41576" data-name="Group 41576" transform="translate(0 1.862)">
            <g id="Group_41575" data-name="Group 41575">
              <path id="Path_17451" data-name="Path 17451" d="M16.985,58.18c-.483,2.936-1.028,5-1.549,5.761a5.764,5.764,0,0,1-4.893,2.527,7.468,7.468,0,0,1-1.623-.173,13.309,13.309,0,0,1-8.5-7.1c1.326-.012,2.738-.062,4.249-.136A9.128,9.128,0,0,0,9.7,62.665c1.834.384,2.465-.533,2.676-.83a11.629,11.629,0,0,0,.9-3.333c1.871-10.406,3.333-40.721-1.14-51.474a10.5,10.5,0,0,0-.78-1.586c-1.09-1.809-1.97-1.734-2.267-1.71-1.2.1-2.973,2.515-4.435,5.451C2.9,9.679,1.35,10.112,0,10.5,1.3,7.164,4.509.363,8.808.016c1.635-.124,3.952.421,5.872,3.729a15.752,15.752,0,0,1,1.053,2.242C20.28,17.769,19.078,45.779,16.985,58.18Z" fill="#051233"/>
            </g>
          </g>
        </g>
      </g>
    </g>
  </g>
</svg>
