<svg xmlns="http://www.w3.org/2000/svg" width="101.662" height="166.713" viewBox="0 0 101.662 166.713">
  <g id="Group_41555" data-name="Group 41555" transform="translate(-2789.611 -1631.75)">
    <g id="Shadows" transform="translate(2789.611 1739.769)">
      <path id="Shadow" d="M2791.119,1973.836l30.3,17.5a8.048,8.048,0,0,0,7.286,0l61.057-35.25c2.011-1.161,2.012-3.043,0-4.206l-30.3-17.5a8.05,8.05,0,0,0-7.285,0l-61.057,35.25C2789.108,1970.792,2789.108,1972.674,2791.119,1973.836Z" transform="translate(-2789.611 -1933.508)" fill="#e0e0e0"/>
    </g>
    <g id="Padlock" transform="translate(2794.979 1631.75)">
      <g id="Group_41554" data-name="Group 41554" transform="translate(0)">
        <g id="Group_41551" data-name="Group 41551" transform="translate(0 31.219)">
          <path id="Path_17424" data-name="Path 17424" d="M2890.27,1751.725a22.244,22.244,0,0,1,3.407-11.685v-6.6a2.081,2.081,0,0,0-.743-1.79h0a1.444,1.444,0,0,0-.2-.119l-21.434-12.378-.017-.01-.022-.013v0a2.036,2.036,0,0,0-2,.215l-16.866,9.739a6.457,6.457,0,0,0-2.79,4.968c-.192,4.83-1.773,13.77-10.3,18.694-8.586,4.957-10.13-2.287-10.3-6.892-.069-1.829-1.2-2.569-2.786-1.654l-16.867,9.736a6.346,6.346,0,0,0-2.871,4.972v6.6s3.407.953,3.407,7.751-5.265,19.144-5.265,36.262c0,8.573,2.719,15.735,8.427,19.022h0l21.442,12.371,0,0c5.689,3.347,14.385,2.811,26.366-4.107,23.847-13.768,34.687-37.785,34.687-54.9S2890.27,1758.524,2890.27,1751.725Z" transform="translate(-2804.612 -1718.962)" fill="#bd9cfd"/>
          <path id="Path_17425" data-name="Path 17425" d="M2869.252,1719.36l-16.866,9.739a6.475,6.475,0,0,0-2.792,4.972c-.179,4.448-1.531,12.391-8.419,17.456l-12.974-7.491-.066-.04a1.913,1.913,0,0,0-1.93.219l-16.871,9.737a4.075,4.075,0,0,0-.664.477,6.128,6.128,0,0,0-1.366,1.665,5.9,5.9,0,0,0-.842,2.831v6.6c.013.006.935.537.935.537,1.021.828,2.473,2.771,2.473,7.213,0,6.8-5.265,19.145-5.265,36.262,0,8.572,2.719,15.738,8.426,19.026l21.389,12.338c-5.6-3.329-8.267-10.435-8.267-18.927,0-17.117,5.262-29.46,5.262-36.262s-3.407-7.75-3.407-7.75v-6.593a6.343,6.343,0,0,1,2.87-4.972l16.872-9.739a1.943,1.943,0,0,1,1.864-.25l.066.033a2.123,2.123,0,0,1,.855,1.869c.172,4.607,1.718,11.853,10.3,6.9,8.527-4.924,10.109-13.862,10.3-18.692a6.45,6.45,0,0,1,2.792-4.968l16.865-9.739a2.068,2.068,0,0,1,1.922-.25l-21.428-12.377A2.039,2.039,0,0,0,2869.252,1719.36Z" transform="translate(-2804.606 -1718.971)" fill="#bd9cfd"/>
          <path id="Path_17426" data-name="Path 17426" d="M2810.732,1832.636l.013.007.014.011,20.586,11.882v-6.6a5.841,5.841,0,0,1,.842-2.831h0l-21.549-12.434a5.914,5.914,0,0,0-.841,2.828v6.6l.013.006Z" transform="translate(-2807.939 -1785.55)" opacity="0.1" style="mix-blend-mode: normal;isolation: isolate"/>
          <path id="Path_17427" data-name="Path 17427" d="M2846.019,1796.088l-12.974-7.491-.067-.04a1.913,1.913,0,0,0-1.929.219l-16.871,9.738a4.1,4.1,0,0,0-.664.477,6.113,6.113,0,0,0-1.365,1.664l21.549,12.437a5.857,5.857,0,0,1,2.029-2.141l16.871-9.739a1.942,1.942,0,0,1,1.863-.251Z" transform="translate(-2809.449 -1763.533)" fill="#fff" opacity="0.4" style="mix-blend-mode: normal;isolation: isolate"/>
          <path id="Path_17428" data-name="Path 17428" d="M2974.9,1731.544l-21.428-12.377a2.051,2.051,0,0,0-2.041.193l-16.865,9.739a5.494,5.494,0,0,0-1.961,2.141l21.55,12.433a5.484,5.484,0,0,1,1.959-2.137l16.865-9.738A2.068,2.068,0,0,1,2974.9,1731.544Z" transform="translate(-2886.789 -1718.97)" fill="#fff" opacity="0.4" style="mix-blend-mode: normal;isolation: isolate"/>
          <path id="Path_17429" data-name="Path 17429" d="M2937.563,1765.666a6.7,6.7,0,0,0-.829,2.831c-.192,4.833-1.776,13.769-10.3,18.7-8.585,4.958-10.13-2.288-10.3-6.9a2.118,2.118,0,0,0-.855-1.869l-.066-.033-8.441-4.872c6.888-5.065,8.24-13.007,8.419-17.456a6.631,6.631,0,0,1,.829-2.831Z" transform="translate(-2870.198 -1740.967)" opacity="0.1" style="mix-blend-mode: normal;isolation: isolate"/>
          <path id="Path_17430" data-name="Path 17430" d="M2834.427,1925.378l-21.39-12.338c-5.708-3.288-8.426-10.453-8.426-19.026,0-17.118,5.265-29.46,5.265-36.262,0-4.4-1.427-6.351-2.447-7.194l20.587,11.88s3.407.948,3.407,7.75-5.262,19.145-5.262,36.262C2826.159,1914.943,2828.824,1922.05,2834.427,1925.378Z" transform="translate(-2804.61 -1803.452)" opacity="0.2" style="mix-blend-mode: normal;isolation: isolate"/>
        </g>
        <g id="Group_41552" data-name="Group 41552" transform="translate(51.524 98.249)">
          <path id="Path_17431" data-name="Path 17431" d="M2958.149,1931.8l-9.229,5.328,1.432-16.7c-1.1-.584-1.807-2.02-1.807-4.083,0-3.676,2.235-7.947,4.992-9.539s4.992.1,4.992,3.774a12.553,12.553,0,0,1-1.807,6.169Z" transform="translate(-2948.544 -1906.217)" fill="#455a64"/>
          <path id="Path_17432" data-name="Path 17432" d="M2958.823,1969.042l-8.36-4.826-.87,10.155Z" transform="translate(-2949.217 -1943.455)" fill="#37474f"/>
          <path id="Path_17433" data-name="Path 17433" d="M2954.85,1906.817a10.9,10.9,0,0,0-4.257,5.649l7.442,4.3v0a12.546,12.546,0,0,0,1.807-6.169C2959.842,1906.915,2957.607,1905.225,2954.85,1906.817Z" transform="translate(-2949.86 -1906.218)" fill="#37474f"/>
        </g>
        <g id="Group_41553" data-name="Group 41553" transform="translate(15.786)">
          <path id="Path_17434" data-name="Path 17434" d="M2899.863,1633.534c-4.561-2.632-10.3-2.339-15.743.8L2864,1645.954c-8.72,5.034-15.295,16.422-15.295,26.49v27.16h0a3.8,3.8,0,0,0,2.237,3.109,11.9,11.9,0,0,0,10.773,0,3.8,3.8,0,0,0,2.238-3.109h0v-27.158c0-4.636,3.656-10.969,7.671-13.286l20.121-11.617.046-.026v27.214h0a3.8,3.8,0,0,0,2.239,3.11,11.9,11.9,0,0,0,10.772,0,3.8,3.8,0,0,0,2.238-3.11h0v-27.161C2907.038,1641.281,2904.423,1636.167,2899.863,1633.534Z" transform="translate(-2848.705 -1631.75)" fill="#37474f"/>
          <path id="Path_17435" data-name="Path 17435" d="M2969.067,1671.207v27.161a3.8,3.8,0,0,0,2.238,3.11,9.107,9.107,0,0,0,2.242.891v-33.8l-4.48,2.586Z" transform="translate(-2925.981 -1655.388)" fill="#263238"/>
        </g>
      </g>
    </g>
  </g>
</svg>
