<svg id="Layer_x0020_1" xmlns="http://www.w3.org/2000/svg" width="179.584" height="41.213" viewBox="0 0 179.584 41.213">
  <g id="_2872060101664">
    <path id="Path_26302" data-name="Path 26302" d="M94.761,79.823a16.924,16.924,0,0,0-15.18-5.482l.949,4.322a12.323,12.323,0,0,1,9.8,21.4A12.3,12.3,0,0,1,70.305,87.624l-4.111-1.37a16.424,16.424,0,0,0,3.479,15.6A16.695,16.695,0,1,0,94.761,79.823Z" transform="translate(-58.604 -66.33)" fill="#4f269f"/>
    <path id="Path_26303" data-name="Path 26303" d="M161.379,164A7.274,7.274,0,1,1,154,171.274a11.616,11.616,0,0,1,.211-1.9l7.7,2.319L160.43,164Z" transform="translate(-137.766 -146.712)" fill="#00dc66"/>
    <path id="Path_26304" data-name="Path 26304" d="M21.083,21.821,17.5,3.795,16.761,0,13.282,3.057l.738,3.268,1.9,9.593L6.641,12.755,3.479,11.7,0,14.758l3.69,1.16Z" fill="#00dc66"/>
    <g id="Group_48958" data-name="Group 48958">
      <path id="Path_26306" data-name="Path 26306" d="M1.843-17.993H5.786L12.952-5.432V-17.993h3.5V0H12.7L5.347-12.781V0h-3.5Zm23.8,15.54A2.757,2.757,0,0,0,27.991-3.54a5.054,5.054,0,0,0,.818-3.088,5.026,5.026,0,0,0-.818-3.082,2.763,2.763,0,0,0-2.344-1.08,2.78,2.78,0,0,0-2.35,1.08,5,5,0,0,0-.824,3.082A5.027,5.027,0,0,0,23.3-3.54,2.774,2.774,0,0,0,25.647-2.454Zm6.812-4.175a7.713,7.713,0,0,1-1.685,5.011A6.189,6.189,0,0,1,25.659.464a6.189,6.189,0,0,1-5.115-2.081A7.713,7.713,0,0,1,18.86-6.628a7.764,7.764,0,0,1,1.685-4.993,6.147,6.147,0,0,1,5.115-2.112,6.147,6.147,0,0,1,5.115,2.112A7.764,7.764,0,0,1,32.458-6.628Zm8.459,4.175A2.757,2.757,0,0,0,43.262-3.54a5.054,5.054,0,0,0,.818-3.088,5.026,5.026,0,0,0-.818-3.082,2.763,2.763,0,0,0-2.344-1.08,2.78,2.78,0,0,0-2.35,1.08,5,5,0,0,0-.824,3.082,5.027,5.027,0,0,0,.824,3.088A2.774,2.774,0,0,0,40.918-2.454Zm6.812-4.175a7.713,7.713,0,0,1-1.685,5.011A6.189,6.189,0,0,1,40.93.464a6.189,6.189,0,0,1-5.115-2.081,7.713,7.713,0,0,1-1.685-5.011,7.764,7.764,0,0,1,1.685-4.993,6.147,6.147,0,0,1,5.115-2.112,6.147,6.147,0,0,1,5.115,2.112A7.764,7.764,0,0,1,47.729-6.628Zm9.717-6.995q.1,0,.165.006t.3.018v3.564q-.33-.037-.586-.049t-.415-.012a2.885,2.885,0,0,0-2.82,1.367,5.319,5.319,0,0,0-.4,2.368V0h-3.5V-13.306H53.5v2.319a7.356,7.356,0,0,1,1.4-1.819A3.822,3.822,0,0,1,57.446-13.623Z" transform="translate(48.803 31.329)" fill="#4f269f"/>
      <path id="Path_26305" data-name="Path 26305" d="M1.078-8.5q0-4.523,2.426-6.973A7.228,7.228,0,0,1,8.871-17.6q4.359,0,6.375,2.859a6.19,6.19,0,0,1,1.2,3.223H12.832a4.875,4.875,0,0,0-.9-1.875A3.67,3.67,0,0,0,9.012-14.52a3.617,3.617,0,0,0-3.105,1.588A7.633,7.633,0,0,0,4.77-8.437a6.7,6.7,0,0,0,1.2,4.354A3.8,3.8,0,0,0,9.023-2.637a3.492,3.492,0,0,0,2.895-1.242,5.4,5.4,0,0,0,.914-2h3.574a7.753,7.753,0,0,1-2.4,4.594A7.02,7.02,0,0,1,9.07.48,7.451,7.451,0,0,1,3.211-1.91,9.569,9.569,0,0,1,1.078-8.5ZM24.621-2.355A2.647,2.647,0,0,0,26.871-3.4a4.852,4.852,0,0,0,.785-2.965,4.825,4.825,0,0,0-.785-2.959,2.653,2.653,0,0,0-2.25-1.037,2.669,2.669,0,0,0-2.256,1.037,4.8,4.8,0,0,0-.791,2.959A4.826,4.826,0,0,0,22.365-3.4,2.663,2.663,0,0,0,24.621-2.355ZM31.16-6.363a7.4,7.4,0,0,1-1.617,4.811,5.942,5.942,0,0,1-4.91,2,5.942,5.942,0,0,1-4.91-2,7.4,7.4,0,0,1-1.617-4.811,7.454,7.454,0,0,1,1.617-4.793,5.9,5.9,0,0,1,4.91-2.027,5.9,5.9,0,0,1,4.91,2.027A7.454,7.454,0,0,1,31.16-6.363Zm8.121,4.008A2.647,2.647,0,0,0,41.531-3.4a4.852,4.852,0,0,0,.785-2.965,4.825,4.825,0,0,0-.785-2.959,2.653,2.653,0,0,0-2.25-1.037,2.669,2.669,0,0,0-2.256,1.037,4.8,4.8,0,0,0-.791,2.959A4.826,4.826,0,0,0,37.025-3.4,2.663,2.663,0,0,0,39.281-2.355ZM45.82-6.363A7.4,7.4,0,0,1,44.2-1.553a5.942,5.942,0,0,1-4.91,2,5.942,5.942,0,0,1-4.91-2,7.4,7.4,0,0,1-1.617-4.811,7.454,7.454,0,0,1,1.617-4.793,5.9,5.9,0,0,1,4.91-2.027,5.9,5.9,0,0,1,4.91,2.027A7.454,7.454,0,0,1,45.82-6.363Zm11.191-.023A5.027,5.027,0,0,0,56.338-9a2.346,2.346,0,0,0-2.186-1.137,2.487,2.487,0,0,0-2.5,1.723,6.534,6.534,0,0,0-.352,2.32,3.7,3.7,0,0,0,1.184,3.129,2.7,2.7,0,0,0,1.664.527,2.411,2.411,0,0,0,2.127-1.078A5.028,5.028,0,0,0,57.012-6.387Zm-1.9-6.668A5,5,0,0,1,58.9-11.4a6.837,6.837,0,0,1,1.553,4.852,7.7,7.7,0,0,1-1.518,5.145A4.913,4.913,0,0,1,55.031.363,4.079,4.079,0,0,1,52.5-.4a4.911,4.911,0,0,1-1.078-1.23V5.027h-3.3v-17.8h3.2v1.887A5.362,5.362,0,0,1,52.465-12.2,4.22,4.22,0,0,1,55.113-13.055Zm7.7,9.563h3.551V0H62.813Z" transform="translate(113.221 30.329)" fill="#00dc66"/>
    </g>
  </g>
</svg>
