<svg xmlns="http://www.w3.org/2000/svg" width="20.96" height="25.523" viewBox="0 0 20.96 25.523">
  <g id="Group_49340" data-name="Group 49340" transform="translate(0.4 0.401)">
    <path id="Path_2803" data-name="Path 2803" d="M74.632,46.56a7.561,7.561,0,0,0-7.553,7.553v.16a20.81,20.81,0,0,1-2.067,8.836,4.905,4.905,0,0,0-.463,2.09.95.95,0,0,0,.95.95H83.759a.95.95,0,0,0,.95-.95,4.9,4.9,0,0,0-.461-2.088,20.782,20.782,0,0,1-2.063-8.829v-.169A7.561,7.561,0,0,0,74.632,46.56Zm7.895,17.361a2.983,2.983,0,0,1,.127.333H66.6a2.993,2.993,0,0,1,.133-.333,22.7,22.7,0,0,0,2.245-9.642v-.16a5.653,5.653,0,1,1,11.305,0v.169a22.67,22.67,0,0,0,2.242,9.627Z" transform="translate(-64.55 -46.561)" fill="#000921" stroke="#fdfdfd" stroke-width="0.8"/>
    <path id="Path_2804" data-name="Path 2804" d="M123.96,213.17a.95.95,0,0,0-.95.95,2.661,2.661,0,1,0,5.322,0,.95.95,0,0,0-.95-.95Z" transform="translate(-115.602 -192.059)" fill="#000921" stroke="#fdfdfd" stroke-width="0.8"/>
  </g>
</svg>
