<svg xmlns="http://www.w3.org/2000/svg" width="15.367" height="17.047" viewBox="0 0 15.367 17.047">
  <path id="paperclip" d="M14.417,10.506,13.156,9.245,7.483,3.572A2.674,2.674,0,0,0,3.7,7.354l5.673,5.675a.594.594,0,1,0,.841-.841L4.542,6.514a1.486,1.486,0,0,1,2.1-2.1l5.675,5.673,1.261,1.261a2.675,2.675,0,1,1-3.784,3.782l-1.05-1.051L2.861,8.195l-.42-.42A3.863,3.863,0,0,1,7.9,2.311l6.3,6.3a.594.594,0,1,0,.841-.841l-6.3-6.3A5.052,5.052,0,0,0,1.6,8.615l6.3,6.3,1.052,1.051a3.863,3.863,0,0,0,5.462-5.463Zm0,0" transform="translate(-0.128 0.001)" fill="#4f269f"/>
</svg>
