<svg xmlns="http://www.w3.org/2000/svg" xmlns:xlink="http://www.w3.org/1999/xlink" width="66" height="66" viewBox="0 0 66 66">
  <defs>
    <filter id="Ellipse_217" x="0" y="0" width="66" height="66" filterUnits="userSpaceOnUse">
      <feOffset dy="3" input="SourceAlpha"/>
      <feGaussianBlur stdDeviation="3" result="blur"/>
      <feFlood flood-opacity="0.161"/>
      <feComposite operator="in" in2="blur"/>
      <feComposite in="SourceGraphic"/>
    </filter>
    <clipPath id="clip-path">
      <path id="Path_2802" data-name="Path 2802" d="M23.655,0A23.655,23.655,0,1,1,0,23.655,23.655,23.655,0,0,1,23.655,0Z" fill="none" style="mix-blend-mode: multiply;isolation: isolate"/>
    </clipPath>
  </defs>
  <g id="Group_44006" data-name="Group 44006" transform="translate(-1783 -18)">
    <g id="Group_1643" data-name="Group 1643" transform="translate(1792.373 24.279)">
      <g transform="matrix(1, 0, 0, 1, -9.37, -6.28)" filter="url(#Ellipse_217)">
        <circle id="Ellipse_217-2" data-name="Ellipse 217" cx="24" cy="24" r="24" transform="translate(9 6)" fill="#4f269f" opacity="0.08"/>
      </g>
      <g id="Mask_Group_14" data-name="Mask Group 14" transform="translate(0.037 0)" clip-path="url(#clip-path)" style="mix-blend-mode: multiply;isolation: isolate">
        <g id="Group_1610" data-name="Group 1610" transform="translate(5.815 11.896)">
          <g id="Ellipse_215" data-name="Ellipse 215" transform="translate(8.988)" fill="#4f269f" stroke="#5519a8" stroke-width="2.5" opacity="0.28">
            <circle cx="9.247" cy="9.247" r="9.247" stroke="none"/>
            <circle cx="9.247" cy="9.247" r="7.997" fill="none"/>
          </g>
          <path id="Path_2799" data-name="Path 2799" d="M-7270.317-452.634v-12.314s3.028-5.194,17.642-5.145,17.782,5.145,17.782,5.145v12.314" transform="translate(7270.317 493.409)" fill="#4f269f" stroke="#4f269f" stroke-width="2.5"/>
        </g>
      </g>
    </g>
  </g>
</svg>
